<svg width="402" height="58" viewBox="0 0 402 58" fill="none" xmlns="http://www.w3.org/2000/svg">
<path d="M194.522 30.5848C194.522 31.7584 194.318 32.7889 193.909 33.6764C193.506 34.5639 192.928 35.247 192.175 35.7258C191.422 36.2046 190.552 36.444 189.565 36.444C188.076 36.444 186.873 35.9126 185.957 34.85C185.04 33.7815 184.582 32.3422 184.582 30.5322V29.2185C184.582 28.0566 184.786 27.029 185.195 26.1356C185.609 25.2364 186.193 24.5475 186.946 24.0687C187.7 23.5841 188.567 23.3418 189.548 23.3418C190.529 23.3418 191.393 23.5782 192.14 24.0512C192.893 24.5241 193.474 25.1927 193.883 26.0568C194.292 26.9209 194.505 27.9223 194.522 29.0608V30.5848ZM193.445 29.201C193.445 27.6654 193.098 26.4626 192.403 25.5926C191.708 24.7226 190.756 24.2876 189.548 24.2876C188.362 24.2876 187.416 24.7256 186.71 25.6014C186.009 26.4713 185.659 27.6887 185.659 29.2535V30.5848C185.659 32.097 186.009 33.2969 186.71 34.1844C187.411 35.066 188.362 35.5069 189.565 35.5069C190.785 35.5069 191.737 35.0719 192.42 34.2019C193.103 33.3261 193.445 32.1087 193.445 30.5497V29.201Z" fill="#4D4D4D"/>
<path d="M204.62 31.627C204.62 33.1042 204.293 34.2778 203.639 35.1478C202.986 36.0119 202.107 36.444 201.003 36.444C199.684 36.444 198.685 35.9535 198.008 34.9726L197.964 36.2688H196.983V22.8163H198.026V28.1675C198.691 27.134 199.678 26.6173 200.986 26.6173C202.107 26.6173 202.991 27.0465 203.639 27.9048C204.293 28.7572 204.62 29.9454 204.62 31.4693V31.627ZM203.569 31.4431C203.569 30.1936 203.327 29.2302 202.842 28.5529C202.358 27.8697 201.675 27.5282 200.793 27.5282C200.122 27.5282 199.552 27.6946 199.085 28.0274C198.618 28.3544 198.265 28.8361 198.026 29.4725V33.7465C198.551 34.9376 199.479 35.5331 200.811 35.5331C201.675 35.5331 202.349 35.1916 202.834 34.5084C203.324 33.8253 203.569 32.8035 203.569 31.4431Z" fill="#4D4D4D"/>
<path d="M212.617 33.8603C212.617 33.3407 212.406 32.9232 211.986 32.6079C211.571 32.2926 210.944 32.0474 210.103 31.8722C209.262 31.6912 208.608 31.4869 208.141 31.2591C207.68 31.0256 207.335 30.7424 207.108 30.4096C206.886 30.0768 206.775 29.6739 206.775 29.201C206.775 28.4536 207.087 27.8376 207.712 27.353C208.337 26.8625 209.137 26.6173 210.112 26.6173C211.169 26.6173 212.015 26.8801 212.652 27.4056C213.294 27.9252 213.615 28.6054 213.615 29.4462H212.564C212.564 28.8915 212.33 28.4303 211.863 28.0624C211.402 27.6946 210.818 27.5107 210.112 27.5107C209.423 27.5107 208.868 27.6654 208.448 27.9748C208.033 28.2784 207.826 28.6755 207.826 29.1659C207.826 29.6389 207.998 30.0067 208.343 30.2695C208.693 30.5264 209.326 30.7628 210.243 30.9789C211.166 31.1949 211.855 31.4255 212.31 31.6708C212.771 31.916 213.113 32.2109 213.335 32.5554C213.557 32.8998 213.668 33.3173 213.668 33.8078C213.668 34.6077 213.344 35.247 212.695 35.7258C212.053 36.2046 211.212 36.444 210.173 36.444C209.07 36.444 208.173 36.1783 207.484 35.647C206.801 35.1098 206.46 34.4325 206.46 33.6151H207.511C207.551 34.2282 207.808 34.7069 208.281 35.0514C208.76 35.3901 209.391 35.5594 210.173 35.5594C210.903 35.5594 211.493 35.3988 211.942 35.0777C212.392 34.7566 212.617 34.3508 212.617 33.8603Z" fill="#4D4D4D"/>
<path d="M219.702 36.444C218.896 36.444 218.166 36.2455 217.512 35.8484C216.864 35.4514 216.359 34.8996 215.997 34.1931C215.635 33.4808 215.454 32.6838 215.454 31.8021V31.4255C215.454 30.5147 215.629 29.6944 215.98 28.9645C216.336 28.2347 216.829 27.6625 217.46 27.2479C218.09 26.8275 218.774 26.6173 219.509 26.6173C220.66 26.6173 221.57 27.0114 222.242 27.7997C222.919 28.5821 223.258 29.6535 223.258 31.0139V31.6007H216.496V31.8021C216.496 32.8765 216.803 33.7727 217.416 34.4909C218.035 35.2032 218.812 35.5594 219.746 35.5594C220.306 35.5594 220.8 35.4572 221.226 35.2529C221.658 35.0485 222.049 34.7215 222.399 34.272L223.056 34.7712C222.286 35.8864 221.167 36.444 219.702 36.444ZM219.509 27.5107C218.721 27.5107 218.055 27.7997 217.512 28.3777C216.975 28.9557 216.648 29.7323 216.531 30.7074H222.216V30.5935C222.186 29.6827 221.927 28.9412 221.436 28.369C220.946 27.7968 220.303 27.5107 219.509 27.5107Z" fill="#4D4D4D"/>
<path d="M229.677 27.6858C229.456 27.6449 229.219 27.6245 228.968 27.6245C228.314 27.6245 227.759 27.8084 227.304 28.1763C226.854 28.5383 226.533 29.0667 226.341 29.7615V36.2688H225.298V26.7925H226.323L226.341 28.2989C226.895 27.1778 227.786 26.6173 229.012 26.6173C229.304 26.6173 229.534 26.6553 229.704 26.7312L229.677 27.6858Z" fill="#4D4D4D"/>
<path d="M234.451 34.8237L237.332 26.7925H238.409L234.871 36.2688H234.022L230.466 26.7925H231.543L234.451 34.8237Z" fill="#4D4D4D"/>
<path d="M245.976 36.2688C245.871 35.971 245.804 35.5302 245.775 34.9463C245.407 35.4251 244.937 35.7959 244.365 36.0586C243.799 36.3155 243.197 36.444 242.561 36.444C241.65 36.444 240.911 36.19 240.345 35.682C239.784 35.174 239.504 34.5318 239.504 33.7552C239.504 32.8327 239.887 32.1028 240.651 31.5657C241.422 31.0285 242.494 30.7599 243.866 30.7599H245.766V29.6827C245.766 29.0054 245.556 28.474 245.136 28.0887C244.721 27.6975 244.114 27.5019 243.314 27.5019C242.584 27.5019 241.98 27.6887 241.501 28.0624C241.022 28.4361 240.783 28.8857 240.783 29.4112L239.732 29.4024C239.732 28.6492 240.082 27.9982 240.783 27.4493C241.483 26.8947 242.345 26.6173 243.367 26.6173C244.423 26.6173 245.255 26.883 245.863 27.4143C246.476 27.9398 246.791 28.6755 246.808 29.6214V34.1055C246.808 35.0222 246.905 35.7083 247.097 36.1637V36.2688H245.976ZM242.683 35.5156C243.384 35.5156 244.009 35.3463 244.558 35.0076C245.112 34.669 245.515 34.2165 245.766 33.6501V31.5657H243.892C242.847 31.5774 242.029 31.77 241.44 32.1437C240.85 32.5116 240.555 33.0195 240.555 33.6676C240.555 34.199 240.751 34.6398 241.142 34.9901C241.539 35.3404 242.053 35.5156 242.683 35.5156Z" fill="#4D4D4D"/>
<path d="M251.24 24.3665V26.7925H253.202V27.6508H251.24V33.9654C251.24 34.4909 251.334 34.8821 251.52 35.139C251.713 35.3959 252.031 35.5244 252.475 35.5244C252.65 35.5244 252.933 35.4952 253.325 35.4368L253.368 36.2951C253.094 36.3943 252.72 36.444 252.247 36.444C251.529 36.444 251.007 36.2367 250.68 35.8221C250.353 35.4018 250.189 34.7858 250.189 33.9742V27.6508H248.446V26.7925H250.189V24.3665H251.24Z" fill="#4D4D4D"/>
<path d="M254.621 31.3905C254.621 30.4797 254.796 29.6593 255.146 28.9295C255.502 28.1996 256.002 27.6333 256.644 27.2304C257.292 26.8217 258.025 26.6173 258.842 26.6173C260.103 26.6173 261.125 27.0611 261.908 27.9486C262.69 28.8302 263.081 30.0009 263.081 31.4606V31.6795C263.081 32.5962 262.903 33.4224 262.547 34.1581C262.197 34.8879 261.7 35.4514 261.058 35.8484C260.416 36.2455 259.683 36.444 258.86 36.444C257.604 36.444 256.583 36.0031 255.794 35.1215C255.012 34.234 254.621 33.0604 254.621 31.6007V31.3905ZM255.672 31.6795C255.672 32.8123 255.964 33.7435 256.548 34.4734C257.137 35.1974 257.908 35.5594 258.86 35.5594C259.806 35.5594 260.57 35.1974 261.154 34.4734C261.744 33.7435 262.039 32.7831 262.039 31.592V31.3905C262.039 30.6665 261.905 30.0038 261.636 29.4024C261.367 28.801 260.991 28.3368 260.506 28.0099C260.022 27.6771 259.467 27.5107 258.842 27.5107C257.908 27.5107 257.146 27.8785 256.556 28.6142C255.967 29.344 255.672 30.3016 255.672 31.4869V31.6795Z" fill="#4D4D4D"/>
<path d="M269.632 27.6858C269.41 27.6449 269.174 27.6245 268.923 27.6245C268.269 27.6245 267.714 27.8084 267.259 28.1763C266.809 28.5383 266.488 29.0667 266.295 29.7615V36.2688H265.253V26.7925H266.278L266.295 28.2989C266.85 27.1778 267.74 26.6173 268.967 26.6173C269.259 26.6173 269.489 26.6553 269.659 26.7312L269.632 27.6858Z" fill="#4D4D4D"/>
<path d="M272.47 36.2688H271.419V26.7925H272.47V36.2688ZM271.235 24.0512C271.235 23.8527 271.299 23.6863 271.428 23.552C271.556 23.4118 271.731 23.3418 271.953 23.3418C272.175 23.3418 272.35 23.4118 272.479 23.552C272.613 23.6863 272.68 23.8527 272.68 24.0512C272.68 24.2497 272.613 24.4161 272.479 24.5504C272.35 24.6847 272.175 24.7518 271.953 24.7518C271.731 24.7518 271.556 24.6847 271.428 24.5504C271.299 24.4161 271.235 24.2497 271.235 24.0512Z" fill="#4D4D4D"/>
<path d="M274.747 31.3905C274.747 30.4797 274.922 29.6593 275.272 28.9295C275.629 28.1996 276.128 27.6333 276.77 27.2304C277.418 26.8217 278.151 26.6173 278.968 26.6173C280.23 26.6173 281.251 27.0611 282.034 27.9486C282.816 28.8302 283.207 30.0009 283.207 31.4606V31.6795C283.207 32.5962 283.029 33.4224 282.673 34.1581C282.323 34.8879 281.827 35.4514 281.184 35.8484C280.542 36.2455 279.809 36.444 278.986 36.444C277.731 36.444 276.709 36.0031 275.921 35.1215C275.138 34.234 274.747 33.0604 274.747 31.6007V31.3905ZM275.798 31.6795C275.798 32.8123 276.09 33.7435 276.674 34.4734C277.264 35.1974 278.034 35.5594 278.986 35.5594C279.932 35.5594 280.697 35.1974 281.281 34.4734C281.87 33.7435 282.165 32.7831 282.165 31.592V31.3905C282.165 30.6665 282.031 30.0038 281.762 29.4024C281.494 28.801 281.117 28.3368 280.632 28.0099C280.148 27.6771 279.593 27.5107 278.968 27.5107C278.034 27.5107 277.272 27.8785 276.683 28.6142C276.093 29.344 275.798 30.3016 275.798 31.4869V31.6795Z" fill="#4D4D4D"/>
<path d="M299.41 30.5848C299.41 31.7584 299.206 32.7889 298.797 33.6764C298.394 34.5639 297.816 35.247 297.063 35.7258C296.31 36.2046 295.44 36.444 294.453 36.444C292.964 36.444 291.761 35.9126 290.844 34.85C289.928 33.7815 289.469 32.3422 289.469 30.5322V29.2185C289.469 28.0566 289.674 27.029 290.083 26.1356C290.497 25.2364 291.081 24.5475 291.834 24.0687C292.587 23.5841 293.454 23.3418 294.435 23.3418C295.416 23.3418 296.28 23.5782 297.028 24.0512C297.781 24.5241 298.362 25.1927 298.771 26.0568C299.179 26.9209 299.392 27.9223 299.41 29.0608V30.5848ZM298.333 29.201C298.333 27.6654 297.985 26.4626 297.291 25.5926C296.596 24.7226 295.644 24.2876 294.435 24.2876C293.25 24.2876 292.304 24.7256 291.598 25.6014C290.897 26.4713 290.547 27.6887 290.547 29.2535V30.5848C290.547 32.097 290.897 33.2969 291.598 34.1844C292.298 35.066 293.25 35.5069 294.453 35.5069C295.673 35.5069 296.625 35.0719 297.308 34.2019C297.991 33.3261 298.333 32.1087 298.333 30.5497V29.201Z" fill="#4D4D4D"/>
<path d="M305.383 35.5594C306.113 35.5594 306.723 35.355 307.213 34.9463C307.71 34.5318 307.978 33.9975 308.019 33.3436H309.026C308.997 33.9216 308.816 34.45 308.483 34.9288C308.151 35.4018 307.707 35.7725 307.152 36.0411C306.603 36.3097 306.014 36.444 305.383 36.444C304.139 36.444 303.153 36.0119 302.423 35.1478C301.699 34.2836 301.337 33.1217 301.337 31.662V31.3467C301.337 30.4125 301.5 29.5863 301.827 28.8682C302.154 28.15 302.621 27.5953 303.229 27.2041C303.842 26.8129 304.557 26.6173 305.374 26.6173C306.414 26.6173 307.269 26.9268 307.94 27.5457C308.618 28.1646 308.98 28.9791 309.026 29.9892H308.019C307.973 29.2477 307.704 28.6492 307.213 28.1938C306.729 27.7384 306.116 27.5107 305.374 27.5107C304.428 27.5107 303.693 27.8522 303.167 28.5354C302.648 29.2185 302.388 30.1761 302.388 31.408V31.7146C302.388 32.9232 302.648 33.8662 303.167 34.5435C303.693 35.2208 304.431 35.5594 305.383 35.5594Z" fill="#4D4D4D"/>
<path d="M314.798 36.444C313.992 36.444 313.262 36.2455 312.609 35.8484C311.96 35.4514 311.455 34.8996 311.093 34.1931C310.731 33.4808 310.55 32.6838 310.55 31.8021V31.4255C310.55 30.5147 310.726 29.6944 311.076 28.9645C311.432 28.2347 311.925 27.6625 312.556 27.2479C313.187 26.8275 313.87 26.6173 314.605 26.6173C315.756 26.6173 316.666 27.0114 317.338 27.7997C318.015 28.5821 318.354 29.6535 318.354 31.0139V31.6007H311.593V31.8021C311.593 32.8765 311.899 33.7727 312.512 34.4909C313.131 35.2032 313.908 35.5594 314.842 35.5594C315.402 35.5594 315.896 35.4572 316.322 35.2529C316.754 35.0485 317.145 34.7215 317.496 34.272L318.152 34.7712C317.382 35.8864 316.264 36.444 314.798 36.444ZM314.605 27.5107C313.817 27.5107 313.152 27.7997 312.609 28.3777C312.071 28.9557 311.744 29.7323 311.628 30.7074H317.312V30.5935C317.282 29.6827 317.023 28.9412 316.532 28.369C316.042 27.7968 315.399 27.5107 314.605 27.5107Z" fill="#4D4D4D"/>
<path d="M326.376 36.2688C326.271 35.971 326.204 35.5302 326.175 34.9463C325.807 35.4251 325.337 35.7959 324.765 36.0586C324.198 36.3155 323.597 36.444 322.961 36.444C322.05 36.444 321.311 36.19 320.745 35.682C320.184 35.174 319.904 34.5318 319.904 33.7552C319.904 32.8327 320.287 32.1028 321.051 31.5657C321.822 31.0285 322.894 30.7599 324.266 30.7599H326.166V29.6827C326.166 29.0054 325.956 28.474 325.536 28.0887C325.121 27.6975 324.514 27.5019 323.714 27.5019C322.984 27.5019 322.38 27.6887 321.901 28.0624C321.422 28.4361 321.183 28.8857 321.183 29.4112L320.132 29.4024C320.132 28.6492 320.482 27.9982 321.183 27.4493C321.883 26.8947 322.745 26.6173 323.766 26.6173C324.823 26.6173 325.655 26.883 326.262 27.4143C326.876 27.9398 327.191 28.6755 327.208 29.6214V34.1055C327.208 35.0222 327.305 35.7083 327.497 36.1637V36.2688H326.376ZM323.083 35.5156C323.784 35.5156 324.409 35.3463 324.958 35.0076C325.512 34.669 325.915 34.2165 326.166 33.6501V31.5657H324.292C323.247 31.5774 322.429 31.77 321.84 32.1437C321.25 32.5116 320.955 33.0195 320.955 33.6676C320.955 34.199 321.151 34.6398 321.542 34.9901C321.939 35.3404 322.453 35.5156 323.083 35.5156Z" fill="#4D4D4D"/>
<path d="M331.009 26.7925L331.044 28.4127C331.401 27.8289 331.844 27.3851 332.376 27.0815C332.907 26.772 333.494 26.6173 334.136 26.6173C335.152 26.6173 335.908 26.9034 336.404 27.4756C336.901 28.0478 337.152 28.9061 337.158 30.0505V36.2688H336.115V30.0418C336.11 29.1951 335.929 28.5645 335.572 28.15C335.222 27.7354 334.659 27.5282 333.882 27.5282C333.234 27.5282 332.659 27.7325 332.157 28.1412C331.66 28.5441 331.293 29.09 331.053 29.779V36.2688H330.011V26.7925H331.009Z" fill="#4D4D4D"/>
<path d="M339.295 31.3905C339.295 30.4797 339.47 29.6593 339.82 28.9295C340.176 28.1996 340.676 27.6333 341.318 27.2304C341.966 26.8217 342.699 26.6173 343.516 26.6173C344.777 26.6173 345.799 27.0611 346.581 27.9486C347.364 28.8302 347.755 30.0009 347.755 31.4606V31.6795C347.755 32.5962 347.577 33.4224 347.221 34.1581C346.87 34.8879 346.374 35.4514 345.732 35.8484C345.09 36.2455 344.357 36.444 343.534 36.444C342.278 36.444 341.256 36.0031 340.468 35.1215C339.686 34.234 339.295 33.0604 339.295 31.6007V31.3905ZM340.346 31.6795C340.346 32.8123 340.638 33.7435 341.221 34.4734C341.811 35.1974 342.582 35.5594 343.534 35.5594C344.479 35.5594 345.244 35.1974 345.828 34.4734C346.418 33.7435 346.713 32.7831 346.713 31.592V31.3905C346.713 30.6665 346.579 30.0038 346.31 29.4024C346.041 28.801 345.665 28.3368 345.18 28.0099C344.696 27.6771 344.141 27.5107 343.516 27.5107C342.582 27.5107 341.82 27.8785 341.23 28.6142C340.64 29.344 340.346 30.3016 340.346 31.4869V31.6795Z" fill="#4D4D4D"/>
<path d="M349.507 31.4431C349.507 29.96 349.834 28.7864 350.488 27.9223C351.147 27.0523 352.041 26.6173 353.168 26.6173C354.458 26.6173 355.439 27.1311 356.11 28.1588L356.163 26.7925H357.144V36.0761C357.144 37.2964 356.802 38.2628 356.119 38.9751C355.436 39.6874 354.51 40.0436 353.343 40.0436C352.683 40.0436 352.052 39.8947 351.451 39.5969C350.855 39.305 350.385 38.9138 350.041 38.4233L350.628 37.7927C351.369 38.7036 352.251 39.159 353.273 39.159C354.148 39.159 354.832 38.8992 355.322 38.3795C355.813 37.8657 356.067 37.1505 356.084 36.2338V35.0427C355.413 35.9769 354.435 36.444 353.15 36.444C352.052 36.444 351.171 36.0061 350.505 35.1303C349.839 34.2544 349.507 33.0721 349.507 31.5832V31.4431ZM350.566 31.627C350.566 32.8356 350.809 33.7903 351.293 34.4909C351.778 35.1857 352.461 35.5331 353.343 35.5331C354.633 35.5331 355.547 34.9551 356.084 33.799V29.3937C355.839 28.7864 355.486 28.3252 355.024 28.0099C354.563 27.6887 354.008 27.5282 353.36 27.5282C352.479 27.5282 351.793 27.8756 351.302 28.5704C350.812 29.2594 350.566 30.2782 350.566 31.627Z" fill="#4D4D4D"/>
<path d="M364.255 27.6858C364.034 27.6449 363.797 27.6245 363.546 27.6245C362.892 27.6245 362.337 27.8084 361.882 28.1763C361.432 28.5383 361.111 29.0667 360.919 29.7615V36.2688H359.876V26.7925H360.901L360.919 28.2989C361.473 27.1778 362.364 26.6173 363.59 26.6173C363.882 26.6173 364.112 26.6553 364.282 26.7312L364.255 27.6858Z" fill="#4D4D4D"/>
<path d="M371.551 36.2688C371.446 35.971 371.379 35.5302 371.35 34.9463C370.982 35.4251 370.512 35.7959 369.939 36.0586C369.373 36.3155 368.772 36.444 368.135 36.444C367.224 36.444 366.486 36.19 365.919 35.682C365.359 35.174 365.079 34.5318 365.079 33.7552C365.079 32.8327 365.461 32.1028 366.226 31.5657C366.997 31.0285 368.068 30.7599 369.44 30.7599H371.341V29.6827C371.341 29.0054 371.131 28.474 370.71 28.0887C370.296 27.6975 369.688 27.5019 368.888 27.5019C368.159 27.5019 367.554 27.6887 367.076 28.0624C366.597 28.4361 366.357 28.8857 366.357 29.4112L365.306 29.4024C365.306 28.6492 365.657 27.9982 366.357 27.4493C367.058 26.8947 367.919 26.6173 368.941 26.6173C369.998 26.6173 370.83 26.883 371.437 27.4143C372.05 27.9398 372.365 28.6755 372.383 29.6214V34.1055C372.383 35.0222 372.479 35.7083 372.672 36.1637V36.2688H371.551ZM368.258 35.5156C368.959 35.5156 369.583 35.3463 370.132 35.0076C370.687 34.669 371.09 34.2165 371.341 33.6501V31.5657H369.467C368.421 31.5774 367.604 31.77 367.014 32.1437C366.425 32.5116 366.13 33.0195 366.13 33.6676C366.13 34.199 366.325 34.6398 366.716 34.9901C367.113 35.3404 367.627 35.5156 368.258 35.5156ZM370.325 22.8163H371.595L369.572 25.2686H368.652L370.325 22.8163Z" fill="#4D4D4D"/>
<path d="M375.816 36.2688V27.6508H374.24V26.7925H375.816V25.8203C375.816 24.8102 376.091 24.0278 376.639 23.4731C377.188 22.9126 377.962 22.6324 378.96 22.6324C379.743 22.6324 380.548 22.8046 381.378 23.1491L381.202 24.0512C380.49 23.7417 379.766 23.587 379.03 23.587C377.588 23.587 376.867 24.3373 376.867 25.8378V26.7925H379.083V27.6508H376.867V36.2688H375.816ZM381.947 36.2688H380.896V26.7925H381.947V36.2688Z" fill="#4D4D4D"/>
<path d="M388.323 35.5594C389.053 35.5594 389.663 35.355 390.153 34.9463C390.65 34.5318 390.918 33.9975 390.959 33.3436H391.966C391.937 33.9216 391.756 34.45 391.423 34.9288C391.09 35.4018 390.647 35.7725 390.092 36.0411C389.543 36.3097 388.953 36.444 388.323 36.444C387.079 36.444 386.092 36.0119 385.363 35.1478C384.639 34.2836 384.277 33.1217 384.277 31.662V31.3467C384.277 30.4125 384.44 29.5863 384.767 28.8682C385.094 28.15 385.561 27.5953 386.168 27.2041C386.781 26.8129 387.497 26.6173 388.314 26.6173C389.353 26.6173 390.209 26.9268 390.88 27.5457C391.558 28.1646 391.92 28.9791 391.966 29.9892H390.959C390.912 29.2477 390.644 28.6492 390.153 28.1938C389.669 27.7384 389.056 27.5107 388.314 27.5107C387.368 27.5107 386.633 27.8522 386.107 28.5354C385.587 29.2185 385.328 30.1761 385.328 31.408V31.7146C385.328 32.9232 385.587 33.8662 386.107 34.5435C386.633 35.2208 387.371 35.5594 388.323 35.5594Z" fill="#4D4D4D"/>
<path d="M393.49 31.3905C393.49 30.4797 393.665 29.6593 394.016 28.9295C394.372 28.1996 394.871 27.6333 395.513 27.2304C396.161 26.8217 396.894 26.6173 397.712 26.6173C398.973 26.6173 399.995 27.0611 400.777 27.9486C401.559 28.8302 401.951 30.0009 401.951 31.4606V31.6795C401.951 32.5962 401.772 33.4224 401.416 34.1581C401.066 34.8879 400.57 35.4514 399.927 35.8484C399.285 36.2455 398.552 36.444 397.729 36.444C396.474 36.444 395.452 36.0031 394.664 35.1215C393.881 34.234 393.49 33.0604 393.49 31.6007V31.3905ZM394.541 31.6795C394.541 32.8123 394.833 33.7435 395.417 34.4734C396.007 35.1974 396.777 35.5594 397.729 35.5594C398.675 35.5594 399.44 35.1974 400.024 34.4734C400.613 33.7435 400.908 32.7831 400.908 31.592V31.3905C400.908 30.6665 400.774 30.0038 400.505 29.4024C400.237 28.801 399.86 28.3368 399.376 28.0099C398.891 27.6771 398.336 27.5107 397.712 27.5107C396.777 27.5107 396.015 27.8785 395.426 28.6142C394.836 29.344 394.541 30.3016 394.541 31.4869V31.6795Z" fill="#4D4D4D"/>
<path d="M186.016 43.9708L190.743 55.2813L195.487 43.9708H196.931V56.7865H195.848V51.206L195.936 45.4847L191.166 56.7865H190.329L185.576 45.5287L185.664 51.1708V56.7865H184.582V43.9708H186.016Z" fill="#4D4D4D"/>
<path d="M205.944 56.7865C205.838 56.4872 205.771 56.0442 205.742 55.4574C205.372 55.9385 204.9 56.3112 204.325 56.5752C203.755 56.8334 203.151 56.9625 202.511 56.9625C201.596 56.9625 200.854 56.7073 200.284 56.1967C199.721 55.6862 199.439 55.0407 199.439 54.2603C199.439 53.3332 199.824 52.5997 200.593 52.0598C201.367 51.52 202.444 51.25 203.823 51.25H205.733V50.1674C205.733 49.4867 205.522 48.9527 205.099 48.5654C204.683 48.1723 204.072 47.9757 203.268 47.9757C202.535 47.9757 201.927 48.1635 201.446 48.539C200.965 48.9146 200.725 49.3664 200.725 49.8945L199.668 49.8857C199.668 49.1287 200.02 48.4745 200.725 47.9229C201.429 47.3654 202.294 47.0867 203.321 47.0867C204.383 47.0867 205.219 47.3537 205.83 47.8877C206.446 48.4158 206.763 49.1552 206.78 50.1058V54.6124C206.78 55.5337 206.877 56.2231 207.071 56.6808V56.7865H205.944ZM202.635 56.0295C203.339 56.0295 203.967 55.8593 204.518 55.519C205.076 55.1786 205.481 54.7239 205.733 54.1547V52.0598H203.849C202.799 52.0715 201.977 52.2652 201.385 52.6407C200.792 53.0104 200.496 53.5209 200.496 54.1723C200.496 54.7063 200.692 55.1493 201.085 55.5014C201.484 55.8535 202.001 56.0295 202.635 56.0295Z" fill="#4D4D4D"/>
<path d="M213.998 48.1605C213.775 48.1195 213.537 48.0989 213.285 48.0989C212.628 48.0989 212.07 48.2838 211.613 48.6534C211.161 49.0173 210.838 49.5483 210.644 50.2466V56.7865H209.597V47.2627H210.627L210.644 48.7767C211.202 47.65 212.097 47.0867 213.329 47.0867C213.622 47.0867 213.854 47.1248 214.024 47.2011L213.998 48.1605Z" fill="#4D4D4D"/>
<path d="M218.663 51.1268L221.233 47.2627H222.483L219.253 51.9366L222.624 56.7865H221.383L218.672 52.7552L215.961 56.7865H214.72L218.082 51.9366L214.852 47.2627H216.093L218.663 51.1268Z" fill="#4D4D4D"/>
<path d="M227.949 56.9625C227.139 56.9625 226.406 56.763 225.749 56.364C225.097 55.965 224.59 55.4104 224.226 54.7004C223.862 53.9845 223.68 53.1835 223.68 52.2975V51.919C223.68 51.0036 223.856 50.1791 224.208 49.4456C224.566 48.7121 225.062 48.1371 225.696 47.7204C226.33 47.2979 227.016 47.0867 227.755 47.0867C228.911 47.0867 229.827 47.4828 230.502 48.275C231.182 49.0613 231.523 50.138 231.523 51.5053V52.095H224.728V52.2975C224.728 53.3772 225.036 54.2779 225.652 54.9997C226.274 55.7156 227.054 56.0735 227.993 56.0735C228.556 56.0735 229.052 55.9708 229.481 55.7654C229.915 55.5601 230.308 55.2315 230.66 54.7796L231.32 55.2813C230.546 56.4021 229.422 56.9625 227.949 56.9625ZM227.755 47.9845C226.963 47.9845 226.294 48.275 225.749 48.8559C225.209 49.4368 224.88 50.2173 224.763 51.1972H230.475V51.0828C230.446 50.1674 230.185 49.4221 229.692 48.8471C229.199 48.272 228.553 47.9845 227.755 47.9845Z" fill="#4D4D4D"/>
<path d="M239.524 56.7865H238.441V43.9708H239.524V56.7865Z" fill="#4D4D4D"/>
<path d="M250.429 52.1214C250.429 53.606 250.101 54.7855 249.443 55.6598C248.786 56.5283 247.903 56.9625 246.794 56.9625C245.468 56.9625 244.465 56.4696 243.784 55.4838L243.74 56.7865H242.754V43.2666H243.801V48.6446C244.47 47.606 245.462 47.0867 246.776 47.0867C247.903 47.0867 248.792 47.518 249.443 48.3806C250.101 49.2373 250.429 50.4314 250.429 51.963V52.1214ZM249.373 51.9366C249.373 50.6808 249.13 49.7126 248.643 49.0319C248.155 48.3454 247.469 48.0021 246.583 48.0021C245.908 48.0021 245.336 48.1693 244.866 48.5038C244.397 48.8324 244.042 49.3165 243.801 49.9561V54.2515C244.33 55.4486 245.263 56.0471 246.6 56.0471C247.469 56.0471 248.147 55.7038 248.634 55.0173C249.127 54.3307 249.373 53.3038 249.373 51.9366Z" fill="#4D4D4D"/>
<path d="M256.45 56.9625C255.64 56.9625 254.907 56.763 254.249 56.364C253.598 55.965 253.09 55.4104 252.727 54.7004C252.363 53.9845 252.181 53.1835 252.181 52.2975V51.919C252.181 51.0036 252.357 50.1791 252.709 49.4456C253.067 48.7121 253.563 48.1371 254.197 47.7204C254.83 47.2979 255.517 47.0867 256.256 47.0867C257.412 47.0867 258.328 47.4828 259.002 48.275C259.683 49.0613 260.023 50.138 260.023 51.5053V52.095H253.228V52.2975C253.228 53.3772 253.536 54.2779 254.153 54.9997C254.775 55.7156 255.555 56.0735 256.494 56.0735C257.057 56.0735 257.553 55.9708 257.981 55.7654C258.416 55.5601 258.809 55.2315 259.161 54.7796L259.821 55.2813C259.046 56.4021 257.923 56.9625 256.45 56.9625ZM256.256 47.9845C255.464 47.9845 254.795 48.275 254.249 48.8559C253.71 49.4368 253.381 50.2173 253.264 51.1972H258.976V51.0828C258.947 50.1674 258.686 49.4221 258.193 48.8471C257.7 48.272 257.054 47.9845 256.256 47.9845ZM257.427 43.2666H258.703L256.67 45.7312H255.746L257.427 43.2666Z" fill="#4D4D4D"/>
<path d="M266.475 48.1605C266.252 48.1195 266.015 48.0989 265.762 48.0989C265.105 48.0989 264.548 48.2838 264.09 48.6534C263.638 49.0173 263.315 49.5483 263.122 50.2466V56.7865H262.074V47.2627H263.104L263.122 48.7767C263.679 47.65 264.574 47.0867 265.806 47.0867C266.1 47.0867 266.332 47.1248 266.502 47.2011L266.475 48.1605Z" fill="#4D4D4D"/>
<path d="M269.327 56.7865H268.271V47.2627H269.327V56.7865ZM268.086 44.5077C268.086 44.3082 268.151 44.141 268.28 44.006C268.409 43.8652 268.585 43.7948 268.808 43.7948C269.031 43.7948 269.207 43.8652 269.336 44.006C269.471 44.141 269.538 44.3082 269.538 44.5077C269.538 44.7072 269.471 44.8745 269.336 45.0094C269.207 45.1444 269.031 45.2119 268.808 45.2119C268.585 45.2119 268.409 45.1444 268.28 45.0094C268.151 44.8745 268.086 44.7072 268.086 44.5077Z" fill="#4D4D4D"/>
<path d="M275.717 56.0735C276.451 56.0735 277.064 55.8681 277.557 55.4574C278.056 55.0407 278.326 54.5038 278.367 53.8466H279.379C279.35 54.4275 279.168 54.9586 278.833 55.4398C278.499 55.9151 278.053 56.2877 277.495 56.5576C276.944 56.8275 276.351 56.9625 275.717 56.9625C274.468 56.9625 273.476 56.5283 272.742 55.6598C272.015 54.7914 271.651 53.6236 271.651 52.1566V51.8398C271.651 50.9009 271.815 50.0706 272.144 49.3488C272.472 48.627 272.942 48.0696 273.552 47.6764C274.168 47.2833 274.887 47.0867 275.709 47.0867C276.753 47.0867 277.613 47.3977 278.288 48.0197C278.968 48.6417 279.332 49.4603 279.379 50.4755H278.367C278.32 49.7302 278.05 49.1287 277.557 48.671C277.07 48.2133 276.454 47.9845 275.709 47.9845C274.758 47.9845 274.019 48.3278 273.49 49.0143C272.968 49.7009 272.707 50.6632 272.707 51.9014V52.2094C272.707 53.4241 272.968 54.3718 273.49 55.0525C274.019 55.7332 274.761 56.0735 275.717 56.0735Z" fill="#4D4D4D"/>
<path d="M287.503 56.7865C287.398 56.4872 287.33 56.0442 287.301 55.4574C286.931 55.9385 286.459 56.3112 285.884 56.5752C285.314 56.8334 284.71 56.9625 284.07 56.9625C283.155 56.9625 282.413 56.7073 281.844 56.1967C281.28 55.6862 280.999 55.0407 280.999 54.2603C280.999 53.3332 281.383 52.5997 282.152 52.0598C282.926 51.52 284.003 51.25 285.382 51.25H287.292V50.1674C287.292 49.4867 287.081 48.9527 286.658 48.5654C286.242 48.1723 285.631 47.9757 284.827 47.9757C284.094 47.9757 283.487 48.1635 283.005 48.539C282.524 48.9146 282.284 49.3664 282.284 49.8945L281.227 49.8857C281.227 49.1287 281.58 48.4745 282.284 47.9229C282.988 47.3654 283.853 47.0867 284.88 47.0867C285.942 47.0867 286.779 47.3537 287.389 47.8877C288.005 48.4158 288.322 49.1552 288.339 50.1058V54.6124C288.339 55.5337 288.436 56.2231 288.63 56.6808V56.7865H287.503ZM284.194 56.0295C284.898 56.0295 285.526 55.8593 286.077 55.519C286.635 55.1786 287.04 54.7239 287.292 54.1547V52.0598H285.408C284.358 52.0715 283.536 52.2652 282.944 52.6407C282.351 53.0104 282.055 53.5209 282.055 54.1723C282.055 54.7063 282.251 55.1493 282.645 55.5014C283.044 55.8535 283.56 56.0295 284.194 56.0295Z" fill="#4D4D4D"/>
<path d="M87.9813 40.8994H80.277L77.7089 34.7169H65.6293L63.0612 40.8994H55.452L68.5779 11.0333H74.9506L87.9813 40.8994ZM68.3876 28.154H74.7603L71.5264 20.6399L68.3876 28.154Z" fill="#1270F8"/>
<path d="M107.575 10.9382H99.2048V57.0689H107.575V10.9382Z" fill="#1270F8"/>
<path d="M162.266 57.3543H152.469L148.094 47.0819H126.217L121.842 57.3543H112.236L132.876 10.5577H141.721L162.266 57.3543ZM129.737 38.8069H144.575L137.156 21.3057L129.737 38.8069Z" fill="#1270F8"/>
<path d="M95.8758 51.6474C95.8758 51.6474 93.9735 48.033 92.9273 46.321C92.737 45.9405 92.5468 45.6552 92.4517 45.56C87.0302 48.3184 82.4646 49.8402 78.2796 50.3158C68.9583 51.3621 61.6345 47.3672 50.6011 41.375L47.177 39.5678C46.8917 39.3776 46.5112 39.1873 46.2259 39.0922C46.1307 38.9971 46.1307 38.902 46.1307 38.902C49.3646 36.1437 51.4572 31.8635 51.4572 26.7273C51.4572 16.8353 44.704 11.0333 33.0049 11.0333H14.3624V37.1899C8.75057 38.5215 3.8046 40.2336 0 41.7554L2.94856 48.4135C3.8046 48.033 4.66063 47.6526 5.51667 47.2721C5.51667 47.2721 5.51667 47.2721 5.61178 47.2721C8.17988 46.321 11.1284 45.3698 14.3624 44.5138V56.7836H22.0667V43.0871H22.2569C28.5345 42.231 35.1925 42.4213 41.0896 44.704H41.1848C42.0408 45.0845 42.8968 45.4649 43.7529 45.9405L47.0819 47.7477C60.3029 54.8813 70.0046 60.2077 84.1767 56.4983C87.7911 55.5471 91.5957 54.0253 95.8758 51.8376C95.8758 51.7425 95.8758 51.6474 95.8758 51.6474ZM35.9534 35.9534C35.0023 36.1437 33.956 36.1437 32.9098 36.1437H22.0667V17.9767H32.9098C40.0434 17.9767 44.0382 20.8302 44.0382 26.8224C44.0382 32.1488 41.0896 35.0974 35.9534 35.9534Z" fill="#1270F8"/>
<path d="M162.266 23.969C155.703 23.969 150.282 18.5474 150.282 11.9845C150.282 5.42155 155.703 0 162.266 0C168.829 0 174.251 5.42155 174.251 11.9845C174.251 18.5474 168.924 23.969 162.266 23.969ZM162.266 7.41896C159.793 7.41896 157.796 9.41638 157.796 11.9845C157.796 14.4575 159.793 16.4549 162.266 16.4549C164.739 16.4549 166.832 14.4575 166.832 11.9845C166.832 9.51149 164.739 7.41896 162.266 7.41896Z" fill="#1270F8"/>
</svg>
