<svg width="168" height="48" viewBox="0 0 168 48" fill="none" xmlns="http://www.w3.org/2000/svg">
<path d="M0 0V48H33.4883V0H0ZM15.5483 4.00021H16.3457V3.2004H17.1432V4.00049H17.9406V4.80059H17.1432V5.60069H16.3454V4.80059H15.548L15.5483 4.00021ZM9.56817 38.3999H7.97357V39.9999H6.37897V38.3999H4.78437V36.8H6.37897V35.2001H7.97357V36.8H9.56817V38.3999ZM9.56817 28.7999H7.97357V30.3998H6.37897V28.7999H4.78437V27.2H6.37897V25.6001H7.97357V27.2H9.56817V28.7999ZM9.56817 19.1998H7.97357V20.7997H6.37897V19.1998H4.78437V17.5999H6.37897V16H7.97357V17.5999H9.56817V19.1998ZM17.5744 35.9381C17.5527 36.2226 17.5417 36.5099 17.5417 36.7997C17.5417 39.1794 18.2815 41.3856 19.5428 43.1997H13.9458C15.2071 41.3856 15.9469 39.1794 15.9469 36.7997C15.9469 36.5099 15.9356 36.2223 15.9142 35.9381C13.2254 35.536 11.1631 33.2096 11.1631 30.3998H22.3255C22.3255 33.2096 20.2632 35.536 17.5744 35.9381ZM19.1363 17.5999V19.1998H17.5417V20.7997H15.9471V19.1998H14.3525V17.5999H15.9471V16H17.5417V17.5999H19.1363ZM16.7443 22.3999C18.5057 22.3999 19.9338 23.8325 19.9338 25.6001C19.9338 27.3673 18.506 28.8002 16.7443 28.8002C14.9829 28.8002 13.5548 27.3676 13.5548 25.6001C13.5548 23.8328 14.9826 22.3999 16.7443 22.3999ZM22.3255 13.9999H11.1628V12.7999H22.3255V13.9999ZM23.4529 10.7617L22.8667 11.6002H21.3771L22.4437 10.057C22.624 9.79338 22.6881 9.44681 22.6881 9.23063C22.6881 8.85386 22.5666 8.53721 22.3267 8.28914C22.04 7.99196 21.6867 7.84125 21.2758 7.84125C21.0994 7.84125 20.9737 7.8579 20.9737 7.8579L20.97 7.85197C21.0592 8.1706 21.1067 8.47794 21.1067 8.76637C21.1067 9.2851 21.0508 9.72565 20.7771 10.1907L19.947 11.6007H18.4959L19.6773 9.58905C19.7875 9.40391 19.8733 9.04267 19.8733 8.76666C19.8733 8.35461 19.7453 8.02215 19.482 7.75094C19.1746 7.43203 18.8207 7.27032 18.43 7.27032C17.9364 7.27032 17.5803 7.41256 17.342 7.70494V11.601H16.1463V7.70409C15.9083 7.41171 15.5519 7.26947 15.0583 7.26947C14.6673 7.26947 14.3137 7.43118 14.0063 7.75009C13.743 8.02131 13.615 8.35377 13.615 8.76581C13.615 9.0421 13.7011 9.40307 13.8111 9.5882L14.9925 11.5999H13.5413L12.7112 10.1899C12.4376 9.72508 12.3816 9.28425 12.3816 8.76553C12.3816 8.4771 12.4291 8.17004 12.5183 7.85113L12.5146 7.85705C12.5146 7.85705 12.3889 7.8404 12.2125 7.8404C11.8019 7.8404 11.4483 7.99111 11.1616 8.28829C10.9217 8.53636 10.8002 8.85302 10.8002 9.22978C10.8002 9.44625 10.8643 9.79253 11.0446 10.0561L12.1113 11.5993H10.6216L10.0357 10.7608C9.71669 10.2988 9.56817 9.81229 9.56817 9.22978C9.56817 8.47964 9.83089 7.85451 10.3456 7.37615C10.8621 6.84162 11.4905 6.57069 12.2128 6.57069C12.5211 6.57069 12.8536 6.63362 13.2018 6.75159C13.2285 6.72168 13.2552 6.69176 13.2862 6.66495C13.759 6.22327 14.3551 5.99947 15.0586 5.99947C15.6678 5.99947 16.2349 6.18715 16.7443 6.55771C17.254 6.18715 17.8208 5.99947 18.43 5.99947C19.1335 5.99947 19.7296 6.22327 20.2024 6.66495C20.2331 6.69176 20.2601 6.72168 20.2868 6.75159C20.635 6.63362 20.9675 6.57069 21.2758 6.57069C21.9981 6.57069 22.6265 6.84162 23.143 7.37615C23.6577 7.85451 23.9204 8.47964 23.9204 9.22978C23.9201 9.81285 23.7716 10.2997 23.4529 10.7617ZM28.7042 38.3999H27.1096V39.9999H25.515V38.3999H23.9204V36.8H25.515V35.2001H27.1096V36.8H28.7042V38.3999ZM28.7042 28.7999H27.1096V30.3998H25.515V28.7999H23.9204V27.2H25.515V25.6001H27.1096V27.2H28.7042V28.7999ZM28.7042 19.1998H27.1096V20.7997H25.515V19.1998H23.9204V17.5999H25.515V16H27.1096V17.5999H28.7042V19.1998ZM55.7016 35.0754C55.7016 40.2716 52.7192 43.1943 48.3264 43.1943H43.0548V27.1881H48.0951C52.6728 27.1881 55.7016 30.0414 55.7016 35.0754ZM53.482 35.0754C53.482 31.1085 51.1932 29.1369 48.0487 29.1369H45.1355V41.2459H48.1874C51.2855 41.2456 53.482 39.2043 53.482 35.0754ZM59.4708 27.1881H69.2739L68.6264 29.1369H61.5515V33.8692H67.8866V35.8179H61.5515V41.2459H68.7189L69.3661 43.1946H59.4706L59.4708 27.1881ZM78.6806 35.1217C78.6806 30.1342 81.7787 26.817 86.5186 26.817C88.2989 26.817 90.4259 27.513 91.9983 28.4409V30.8533C90.033 29.624 87.9059 28.812 86.5186 28.812C83.2124 28.812 80.9002 31.3404 80.9002 35.1217C80.9002 39.1348 82.9117 41.617 85.8941 41.617C88.6687 41.617 90.6802 39.854 90.9345 36.8616H86.4722L85.848 34.9131H92.9924C93.0849 35.3539 93.131 35.841 93.131 36.3744C93.131 40.6196 90.3334 43.612 85.8944 43.612C81.4549 43.6117 78.6806 40.3411 78.6806 35.1217ZM101.755 27.1881H103.096L109.801 43.1943H107.513L105.964 39.274H98.8192L97.2471 43.1943H95.0505L101.755 27.1881ZM105.2 37.3718L102.402 30.3431L99.5817 37.3718H105.2ZM112.692 27.1881H114.772V41.2459H122.171L122.819 43.1946H112.692V27.1881ZM125.801 27.1881H127.882V43.1943H125.801V27.1881ZM131.651 35.0754C131.651 30.1111 134.356 26.817 138.679 26.817C140.552 26.817 142.541 27.513 143.997 28.6032V31.039C142.24 29.7168 140.298 28.812 138.679 28.812C135.905 28.812 133.871 31.1782 133.871 35.0754C133.871 39.1117 135.813 41.5704 138.679 41.5704C140.298 41.5704 142.24 40.6656 143.997 39.3434V41.7793C142.54 42.8695 140.552 43.5655 138.679 43.5655C134.264 43.5655 131.651 40.1785 131.651 35.0754ZM147.72 27.1881H149.801V43.1943H147.72V27.1881ZM159.396 27.1881H160.737L167.442 43.1943H165.153L163.604 39.274H156.46L154.888 43.1943H152.691L159.396 27.1881ZM162.841 37.3718L160.043 30.3431L157.223 37.3718H162.841ZM48.4467 12.5648L43.3372 4.79354H45.788L49.7648 10.848L53.6952 4.79354H56.0535L50.944 12.6111L56.3312 20.8H53.8803L49.6262 14.3278L45.4182 20.8H43.0599L48.4467 12.5648ZM58.8515 15.4415V4.79382H60.9324V15.3486C60.9324 17.8308 62.4353 19.2227 64.7472 19.2227C67.0591 19.2227 68.562 17.8308 68.562 15.3486V4.79382H70.6426V15.4415C70.6426 19.037 68.3538 21.2177 64.7469 21.2177C61.14 21.2177 58.8515 19.037 58.8515 15.4415ZM75.1983 4.79382H76.9555L85.117 16.2069V4.79382H87.1976V20.8H86.0185L77.279 8.57503V20.8H75.1983V4.79382ZM96.4699 6.74228H90.6898L90.0422 4.79382H104.978L104.331 6.74228H98.5505V20.8H96.4699V6.74228ZM110.921 4.79382H112.262L118.967 20.8H116.678L115.129 16.8797H107.985L106.413 20.8H104.216L110.921 4.79382ZM114.366 14.9775L111.568 7.94878L108.747 14.9775H114.366Z" fill="white"/>
</svg>
