<?xml version="1.0" standalone="yes"?><svg xmlns="http://www.w3.org/2000/svg" cursor="crosshair" height="48" width="172" fill="#007bc4" viewBox="0 0 172 48" style="zoom: 1;"><path d="M5.47616,12.7836 C8.82172,12.7836 10.9523,10.3008 10.9523,6.30374 C10.9523,2.50037 8.82172,0 5.47616,0 C2.13059,0 0,2.50037 0,6.30374 C0,10.3008 2.13059,12.7836 5.47616,12.7836 M5.47616,11.2693 C3.16948,11.2693 1.69039,9.50844 1.69039,6.30374 C1.69039,3.31034 3.16948,1.51431 5.47616,1.51431 C7.78283,1.51431 9.26192,3.31034 9.26192,6.30374 C9.26192,9.50844 7.78283,11.2693 5.47616,11.2693 " fill="#007bc4"></path><path d="M13.4806,12.4666 H17.689 C20.0485,12.4666 21.5452,11.1636 21.5452,8.90976 C21.5452,7.55392 20.8232,6.51504 19.4498,6.0044 C20.4359,5.45855 21.0169,4.57814 21.0169,3.4336 C21.0169,1.47909 19.6435,0.316947 17.3016,0.316947 H13.4806 V12.4666 M15.0653,5.45855 V1.7256 H17.1959 C18.6046,1.7256 19.397,2.42993 19.397,3.50403 C19.397,4.66618 18.4989,5.45855 17.372,5.45855 H15.0653 M15.0653,11.058 V6.8672 H17.4425 C18.992,6.8672 19.89,7.67718 19.89,8.90976 C19.89,10.2128 18.9215,11.058 17.5481,11.058 H15.0653 " fill="#007bc4"></path><path d="M26.4342,12.7484 C28.9698,12.7484 30.713,11.4101 30.713,9.19149 C30.713,7.04329 29.2691,6.39178 27.1737,5.31768 C25.7299,4.57814 24.9551,4.17315 24.9551,3.18709 C24.9551,2.30668 25.677,1.53191 27.0681,1.53191 C28.0365,1.53191 29.2515,1.97212 30.396,2.58841 V0.915627 C29.4628,0.404988 28.2478,0.0352158 27.0681,0.0352158 C24.7614,0.0352158 23.3528,1.46148 23.3528,3.2223 C23.3528,5.30007 24.8495,5.96918 26.6103,6.8496 C28.0365,7.55392 29.0754,8.09978 29.0754,9.26192 C29.0754,10.4593 28.0189,11.2516 26.399,11.2516 C25.4834,11.2516 24.2156,10.7586 23.1943,10.1071 V11.7975 C24.0219,12.3258 25.2368,12.7484 26.4342,12.7484 " fill="#007bc4"></path><path d="M33.2211,12.4666 H40.7574 L40.2644,10.9875 H34.8058 V6.8672 H39.6305 V5.38811 H34.8058 V1.79604 H40.1939 L40.687,0.316947 H33.2211 V12.4666 " fill="#007bc4"></path><path d="M43.0397,12.4666 H44.6245 V7.32502 H45.0118 L49.5371,12.4666 H51.5973 L46.9311,7.30741 C49.2202,7.18415 50.6641,5.88114 50.6641,3.78577 C50.6641,1.60235 49.1145,0.316947 46.5614,0.316947 H43.0397 V12.4666 M44.6245,5.98679 V1.76082 H46.4909 C48.0581,1.76082 49.0089,2.55319 49.0089,3.82098 C49.0089,5.12399 47.9524,5.98679 46.4205,5.98679 H44.6245 " fill="#007bc4"></path><path d="M56.7395,12.6427 H57.5494 L62.3741,0.316947 H60.7189 L57.1621,9.70213 L53.6404,0.316947 H51.9148 L56.7395,12.6427 " fill="#007bc4"></path><path d="M61.9914,12.4666 H63.6642 L64.8615,9.49083 H70.3025 L71.4822,12.4666 H73.2254 L68.119,0.316947 H67.0978 L61.9914,12.4666 M65.4426,8.04696 L67.5908,2.71167 L69.7214,8.04696 H65.4426 " fill="#007bc4"></path><path d="M77.203,12.4666 H78.7877 V1.79604 H83.1898 L83.6828,0.316947 H72.3079 L72.8009,1.79604 H77.203 V12.4666 " fill="#007bc4"></path><path d="M89.6826,12.7836 C93.0282,12.7836 95.1588,10.3008 95.1588,6.30374 C95.1588,2.50037 93.0282,0 89.6826,0 C86.3371,0 84.2065,2.50037 84.2065,6.30374 C84.2065,10.3008 86.3371,12.7836 89.6826,12.7836 M89.6826,11.2693 C87.376,11.2693 85.8969,9.50844 85.8969,6.30374 C85.8969,3.31034 87.376,1.51431 89.6826,1.51431 C91.9893,1.51431 93.4684,3.31034 93.4684,6.30374 C93.4684,9.50844 91.9893,11.2693 89.6826,11.2693 " fill="#007bc4"></path><path d="M97.6871,12.4666 H99.2718 V7.32502 H99.6592 L104.185,12.4666 H106.245 L101.578,7.30741 C103.868,7.18415 105.311,5.88114 105.311,3.78577 C105.311,1.60235 103.762,0.316947 101.209,0.316947 H97.6871 V12.4666 M99.2718,5.98679 V1.76082 H101.138 C102.705,1.76082 103.656,2.55319 103.656,3.82098 C103.656,5.12399 102.6,5.98679 101.068,5.98679 H99.2718 " fill="#007bc4"></path><path d="M108.176,12.4666 H109.761 V0.316947 H108.176 V12.4666 " fill="#007bc4"></path><path d="M117.78,12.7836 C121.126,12.7836 123.256,10.3008 123.256,6.30374 C123.256,2.50037 121.126,0 117.78,0 C114.435,0 112.304,2.50037 112.304,6.30374 C112.304,10.3008 114.435,12.7836 117.78,12.7836 M117.78,11.2693 C115.473,11.2693 113.994,9.50844 113.994,6.30374 C113.994,3.31034 115.473,1.51431 117.78,1.51431 C120.087,1.51431 121.566,3.31034 121.566,6.30374 C121.566,9.50844 120.087,11.2693 117.78,11.2693 " fill="#007bc4"></path><path d="M5.3529,30.3566 C6.77916,30.3566 8.29347,29.8283 9.40279,29.0007 V27.1519 C8.06456,28.1555 6.58547,28.8423 5.3529,28.8423 C3.16948,28.8423 1.69039,26.9758 1.69039,23.912 C1.69039,20.9538 3.23991,19.1577 5.3529,19.1577 C6.58547,19.1577 8.06456,19.8445 9.40279,20.8481 V18.9993 C8.29347,18.1717 6.77916,17.6434 5.3529,17.6434 C2.06016,17.6434 0,20.1438 0,23.912 C0,27.7858 1.98973,30.3566 5.3529,30.3566 " fill="#007bc4"></path><path d="M16.6704 30.3918C20.016 30.3918 22.1466 27.909 22.1466 23.912C22.1466 20.1086 20.016 17.6082 16.6704 17.6082C13.3249 17.6082 11.1943 20.1086 11.1943 23.912C11.1943 27.909 13.3249 30.3918 16.6704 30.3918ZM16.6704 28.8775C14.3638 28.8775 12.8847 27.1167 12.8847 23.912C12.8847 20.9186 14.3638 19.1225 16.6704 19.1225C18.9771 19.1225 20.4562 20.9186 20.4562 23.912C20.4562 27.1167 18.9771 28.8775 16.6704 28.8775Z" fill="#007bc4"></path><path d="M27.1048 30.3566C29.6404 30.3566 31.3836 29.0183 31.3836 26.7997C31.3836 24.6515 29.9397 24 27.8444 22.9259C26.4005 22.1864 25.6257 21.7814 25.6257 20.7953C25.6257 19.9149 26.3477 19.1401 27.7387 19.1401C28.7072 19.1401 29.9221 19.5803 31.0667 20.1966V18.5238C30.1334 18.0132 28.9185 17.6434 27.7387 17.6434C25.432 17.6434 24.0234 19.0697 24.0234 20.8305C24.0234 22.9083 25.5201 23.5774 27.2809 24.4578C28.7072 25.1621 29.7461 25.708 29.7461 26.8701C29.7461 28.0675 28.6896 28.8599 27.0696 28.8599C26.154 28.8599 24.8862 28.3668 23.8649 27.7153V29.4057C24.6925 29.934 25.9075 30.3566 27.1048 30.3566Z" fill="#007bc4"></path><path d="M37.3781 30.0748H38.9629V19.4043H43.3649L43.8579 17.9252H32.483L32.9761 19.4043H37.3781V30.0748Z" fill="#007bc4"></path><path d="M45.6878 30.0748H53.2241L52.7311 28.5957H47.2726V24.4754H52.0972V22.9963H47.2726V19.4043H52.6607L53.1537 17.9252H45.6878V30.0748Z" fill="#007bc4"></path><path d="M55.5065 30.0748H57.0912V17.9252H55.5065V30.0748Z" fill="#007bc4"></path><path d="M60.3384,30.0748 H61.9231 V24.9332 H62.3105 L66.8358,30.0748 H68.896 L64.2298,24.9156 C66.5189,24.7924 67.9628,23.4894 67.9628,21.394 C67.9628,19.2106 66.4132,17.9252 63.8601,17.9252 H60.3384 V30.0748 M61.9231,23.595 V19.369 H63.7896 C65.3568,19.369 66.3076,20.1614 66.3076,21.4292 C66.3076,22.7322 65.2511,23.595 63.7192,23.595 H61.9231" fill="#007bc4"></path><path d="M75.5995 30.3918C78.9451 30.3918 81.0757 27.909 81.0757 23.912C81.0757 20.1086 78.9451 17.6082 75.5995 17.6082C72.2539 17.6082 70.1234 20.1086 70.1234 23.912C70.1234 27.909 72.2539 30.3918 75.5995 30.3918ZM75.5995 28.8775C73.2928 28.8775 71.8137 27.1167 71.8137 23.912C71.8137 20.9186 73.2928 19.1225 75.5995 19.1225C77.9062 19.1225 79.3853 20.9186 79.3853 23.912C79.3853 27.1167 77.9062 28.8775 75.5995 28.8775Z" fill="#007bc4"></path><path d="M92.1197 17.9252H88.2811V30.0748H92.2958C95.6414 30.0748 97.9128 27.8562 97.9128 23.912C97.9128 20.091 95.6061 17.9252 92.1197 17.9252ZM92.1902 28.5957H89.8659V19.4043H92.0845C94.4792 19.4043 96.2224 20.901 96.2224 23.912C96.2224 27.0462 94.5497 28.5957 92.1902 28.5957Z" fill="#007bc4"></path><path d="M98.7726 30.0748H100.445L101.643 27.099H107.084L108.263 30.0748H110.007L104.9 17.9252H103.879L98.7726 30.0748ZM102.224 25.6552L104.372 20.3199L106.503 25.6552H102.224Z" fill="#007bc4"></path><path d="M115.177 30.0748H116.973L120.178 25.1621L123.418 30.0748H125.284L121.182 23.8591L125.073 17.9252H123.277L120.284 22.5209L117.255 17.9252H115.388L119.28 23.8239L115.177 30.0748Z" fill="#007bc4"></path><path d="M131.355 30.3918C134.102 30.3918 135.846 28.7366 135.846 26.0073V17.9252H134.261V25.9369C134.261 27.821 133.116 28.8775 131.355 28.8775C129.595 28.8775 128.45 27.821 128.45 25.9369V17.9252H126.865V26.0073C126.865 28.7366 128.609 30.3918 131.355 30.3918Z" fill="#007bc4"></path><path d="M138.974 30.0748H140.558V20.7953L147.214 30.0748H148.112V17.9252H146.527V26.5884L140.312 17.9252H138.974V30.0748Z" fill="#007bc4"></path><path d="M154.841 30.0748H156.425V19.4043H160.828L161.321 17.9252H149.946L150.439 19.4043H154.841V30.0748Z" fill="#007bc4"></path><path d="M160.401 30.0748H162.074L163.271 27.099H168.712L169.892 30.0748H171.635L166.529 17.9252H165.508L160.401 30.0748ZM163.853 25.6552L166.001 20.3199L168.131 25.6552H163.853Z" fill="#007bc4"></path><path d="M4.54292 35.5334H0.704329V47.683H4.719C8.06456 47.683 10.336 45.4644 10.336 41.5202C10.336 37.6992 8.02935 35.5334 4.54292 35.5334ZM4.61335 46.204H2.28907V37.0125H4.5077C6.90242 37.0125 8.64563 38.5092 8.64563 41.5202C8.64563 44.6544 6.97285 46.204 4.61335 46.204Z" fill="#007bc4"></path><path d="M12.8788 47.683H20.4151L19.922 46.204H14.4635V42.0836H19.2882V40.6045H14.4635V37.0125H19.8516L20.3446 35.5334H12.8788V47.683Z" fill="#007bc4"></path><path d="M32.164 48C35.5448 48 37.6754 45.7285 37.6754 42.5062C37.6754 42.1012 37.6402 41.7315 37.5697 41.3969H32.1288L32.6042 42.876H36.0026C35.8089 45.1475 34.277 46.4857 32.164 46.4857C29.8926 46.4857 28.3606 44.6016 28.3606 41.5554C28.3606 38.6852 30.1215 36.766 32.6394 36.766C33.6959 36.766 35.3159 37.3822 36.8126 38.3155V36.4842C35.6152 35.7799 33.9953 35.2517 32.6394 35.2517C29.0298 35.2517 26.6703 37.7696 26.6703 41.5554C26.6703 45.5172 28.7832 48 32.164 48Z" fill="#007bc4"></path><path d="M38.7946 47.683H40.4674L41.6648 44.7073H47.1057L48.2854 47.683H50.0287L44.9223 35.5334H43.901L38.7946 47.683ZM42.2458 43.2634L44.394 37.9281L46.5246 43.2634H42.2458Z" fill="#007bc4"></path><path d="M51.8954 47.683H59.6078L59.1148 46.204H53.4801V35.5334H51.8954V47.683Z" fill="#007bc4"></path><path d="M61.5421 47.683H63.1268V35.5334H61.5421V47.683Z" fill="#007bc4"></path><path d="M71.0226,47.9648 C72.4489,47.9648 73.9632,47.4365 75.0725,46.609 V44.7601 C73.7343,45.7638 72.2552,46.4505 71.0226,46.4505 C68.8392,46.4505 67.3601,44.584 67.3601,41.5202 C67.3601,38.562 68.9096,36.766 71.0226,36.766 C72.2552,36.766 73.7343,37.4527 75.0725,38.4563 V36.6075 C73.9632,35.7799 72.4489,35.2517 71.0226,35.2517 C67.7299,35.2517 65.6697,37.752 65.6697,41.5202 C65.6697,45.394 67.6594,47.9648 71.0226,47.9648 " fill="#007bc4"></path><path d="M77.5683,47.683 H79.1531 V35.5334 H77.5683 V47.683 " fill="#007bc4"></path><path d="M81.0268,47.683 H82.6996 L83.897,44.7073 H89.3379 L90.5177,47.683 H92.2609 L87.1545,35.5334 H86.1332 L81.0268,47.683 M84.478,43.2634 L86.6262,37.9281 L88.7568,43.2634 H84.478 " fill="#007bc4"></path></svg>